<svg width="24" height="25" viewBox="0 0 24 25" fill="none" xmlns="http://www.w3.org/2000/svg">
<g id="account_circle">
<mask id="mask0_840_396" style="mask-type:alpha" maskUnits="userSpaceOnUse" x="0" y="0" width="24" height="25">
<rect id="Bounding box" y="0.0153809" width="24" height="24" fill="#D9D9D9"/>
</mask>
<g mask="url(#mask0_840_396)">
<path id="account_circle_2" d="M6.19615 17.5C7.04615 16.8885 7.94808 16.4048 8.90193 16.049C9.85577 15.6933 10.8885 15.5154 12 15.5154C13.1115 15.5154 14.1442 15.6933 15.0981 16.049C16.0519 16.4048 16.9538 16.8885 17.8039 17.5C18.4641 16.8167 18.9952 16.0096 19.3971 15.0788C19.799 14.1481 20 13.1269 20 12.0154C20 9.79871 19.2208 7.91121 17.6625 6.35288C16.1042 4.79455 14.2167 4.01538 12 4.01538C9.78333 4.01538 7.89583 4.79455 6.3375 6.35288C4.77917 7.91121 4 9.79871 4 12.0154C4 13.1269 4.20096 14.1481 4.60288 15.0788C5.00481 16.0096 5.5359 16.8167 6.19615 17.5ZM12.0006 12.5154C11.1579 12.5154 10.4471 12.2262 9.86827 11.6477C9.28942 11.0692 9 10.3587 9 9.51596C9 8.67326 9.28923 7.96249 9.86768 7.38366C10.4461 6.80481 11.1567 6.51538 11.9994 6.51538C12.8421 6.51538 13.5529 6.80461 14.1317 7.38308C14.7106 7.96153 15 8.67211 15 9.51481C15 10.3575 14.7108 11.0683 14.1323 11.6471C13.5539 12.226 12.8433 12.5154 12.0006 12.5154ZM12 21.0154C10.7449 21.0154 9.56987 20.7817 8.475 20.3144C7.38013 19.8471 6.42757 19.2083 5.6173 18.3981C4.80705 17.5878 4.16827 16.6352 3.70095 15.5404C3.23365 14.4455 3 13.2705 3 12.0154C3 10.7602 3.23365 9.58525 3.70095 8.49038C4.16827 7.39551 4.80705 6.44295 5.6173 5.63268C6.42757 4.82243 7.38013 4.18365 8.475 3.71633C9.56987 3.24903 10.7449 3.01538 12 3.01538C13.2551 3.01538 14.4301 3.24903 15.525 3.71633C16.6199 4.18365 17.5724 4.82243 18.3827 5.63268C19.1929 6.44295 19.8317 7.39551 20.299 8.49038C20.7663 9.58525 21 10.7602 21 12.0154C21 13.2705 20.7663 14.4455 20.299 15.5404C19.8317 16.6352 19.1929 17.5878 18.3827 18.3981C17.5724 19.2083 16.6199 19.8471 15.525 20.3144C14.4301 20.7817 13.2551 21.0154 12 21.0154ZM12 20.0154C12.9218 20.0154 13.8289 19.8542 14.7212 19.5317C15.6135 19.2093 16.3846 18.7679 17.0346 18.2077C16.3846 17.6859 15.6327 17.2734 14.7788 16.9702C13.925 16.667 12.9987 16.5154 12 16.5154C11.0013 16.5154 10.0718 16.6638 9.21155 16.9606C8.35128 17.2574 7.60256 17.6731 6.96537 18.2077C7.61537 18.7679 8.38653 19.2093 9.27885 19.5317C10.1712 19.8542 11.0782 20.0154 12 20.0154ZM12 11.5154C12.5615 11.5154 13.0353 11.3224 13.4212 10.9365C13.807 10.5506 14 10.0769 14 9.51538C14 8.95385 13.807 8.48013 13.4212 8.09423C13.0353 7.70833 12.5615 7.51538 12 7.51538C11.4385 7.51538 10.9647 7.70833 10.5788 8.09423C10.1929 8.48013 10 8.95385 10 9.51538C10 10.0769 10.1929 10.5506 10.5788 10.9365C10.9647 11.3224 11.4385 11.5154 12 11.5154Z" fill="#1C1B1F"/>
</g>
</g>
</svg>
