<svg width="24" height="24" viewBox="0 0 24 24" fill="none" xmlns="http://www.w3.org/2000/svg">
<mask id="mask0_398_1046" style="mask-type:alpha" maskUnits="userSpaceOnUse" x="0" y="0" width="24" height="24">
<rect width="24" height="24" fill="#D9D9D9"/>
</mask>
<g mask="url(#mask0_398_1046)">
<path d="M12 19.6538L11.2423 18.9691C9.61025 17.4781 8.26025 16.2018 7.1923 15.1403C6.12435 14.0788 5.2814 13.1425 4.66345 12.3316C4.0455 11.5207 3.61378 10.7871 3.36828 10.1307C3.12276 9.47426 3 8.814 3 8.1499C3 6.8781 3.43205 5.81015 4.29615 4.94605C5.16025 4.08195 6.2282 3.6499 7.5 3.6499C8.37948 3.6499 9.20448 3.8749 9.975 4.3249C10.7455 4.7749 11.4205 5.42939 12 6.28835C12.5795 5.42939 13.2545 4.7749 14.025 4.3249C14.7955 3.8749 15.6205 3.6499 16.5 3.6499C17.7718 3.6499 18.8398 4.08195 19.7038 4.94605C20.5679 5.81015 21 6.8781 21 8.1499C21 8.814 20.8772 9.47426 20.6317 10.1307C20.3862 10.7871 19.9545 11.5207 19.3365 12.3316C18.7186 13.1425 17.8789 14.0788 16.8173 15.1403C15.7558 16.2018 14.4026 17.4781 12.7577 18.9691L12 19.6538Z" fill="#F52A3B"/>
</g>
</svg>
