<svg width="24" height="24" viewBox="0 0 24 24" fill="none" xmlns="http://www.w3.org/2000/svg">
<g id="Property 1=skull">
<mask id="mask0_183_185" style="mask-type:alpha" maskUnits="userSpaceOnUse" x="0" y="0" width="24" height="24">
<rect id="Bounding box" width="24" height="24" fill="#D9D9D9"/>
</mask>
<g mask="url(#mask0_183_185)">
<path id="skull" d="M7 21V17.0962C6.38845 16.8385 5.83684 16.501 5.34518 16.0837C4.85351 15.6664 4.43364 15.1897 4.08558 14.6538C3.73749 14.1179 3.46954 13.5404 3.28172 12.9212C3.09391 12.3019 3 11.6615 3 11C3 8.64872 3.83985 6.72756 5.51955 5.23653C7.19925 3.74551 9.35887 3 11.9984 3C14.6379 3 16.7981 3.74551 18.4789 5.23653C20.1596 6.72756 21 8.64872 21 11C21 11.6615 20.9061 12.3019 20.7183 12.9212C20.5305 13.5404 20.2625 14.1179 19.9144 14.6538C19.5664 15.1897 19.1465 15.6664 18.6548 16.0837C18.1632 16.501 17.6116 16.8396 17 17.0996V21H7ZM8 20H9.42308V18.4615H10.9616V20H13.0385V18.4615H14.5769V20H16V16.45C16.6077 16.2615 17.1574 15.9891 17.649 15.6327C18.1407 15.2763 18.5615 14.8593 18.9115 14.3818C19.2616 13.9043 19.5305 13.3773 19.7183 12.801C19.9061 12.2247 20 11.6244 20 11C20 8.91667 19.2625 7.22917 17.7875 5.9375C16.3125 4.64583 14.3833 4 12 4C9.61667 4 7.6875 4.64583 6.2125 5.9375C4.7375 7.22917 4 8.91667 4 11C4 11.6244 4.09391 12.2247 4.28172 12.801C4.46952 13.3773 4.73843 13.9043 5.08845 14.3818C5.43845 14.8593 5.86025 15.2763 6.35385 15.6327C6.84743 15.9891 7.39615 16.2615 8 16.45V20ZM10.6923 15H13.3077L12 12.3846L10.6923 15ZM8.5034 12.6154C8.94857 12.6154 9.32852 12.4569 9.64327 12.1399C9.95801 11.8229 10.1154 11.4418 10.1154 10.9966C10.1154 10.5514 9.95687 10.1715 9.63987 9.85672C9.32286 9.54199 8.94177 9.38463 8.4966 9.38463C8.05143 9.38463 7.67148 9.54313 7.35673 9.86013C7.04199 10.1771 6.88463 10.5582 6.88463 11.0034C6.88463 11.4486 7.04313 11.8285 7.36013 12.1433C7.67714 12.458 8.05823 12.6154 8.5034 12.6154ZM15.5034 12.6154C15.9486 12.6154 16.3285 12.4569 16.6433 12.1399C16.958 11.8229 17.1154 11.4418 17.1154 10.9966C17.1154 10.5514 16.9569 10.1715 16.6399 9.85672C16.3229 9.54199 15.9418 9.38463 15.4966 9.38463C15.0514 9.38463 14.6715 9.54313 14.3567 9.86013C14.042 10.1771 13.8846 10.5582 13.8846 11.0034C13.8846 11.4486 14.0431 11.8285 14.3601 12.1433C14.6771 12.458 15.0582 12.6154 15.5034 12.6154Z" fill="black"/>
</g>
</g>
</svg>
