<svg width="24" height="17" viewBox="0 0 24 17" fill="none" xmlns="http://www.w3.org/2000/svg">
<g id="check">
<path id="Vector" fill-rule="evenodd" clip-rule="evenodd" d="M11.3401 12.6597C10.6507 11.9703 10.7321 10.7708 11.5231 9.97979L20.072 1.4309C20.8625 0.640442 22.062 0.559037 22.7514 1.24844C23.4412 1.9383 23.3598 3.13778 22.5694 3.92824L14.0205 12.4771C13.2295 13.2681 12.03 13.3495 11.3401 12.6597Z" fill="black"/>
<path id="Vector_2" fill-rule="evenodd" clip-rule="evenodd" d="M11.0818 15.615C10.3924 16.3044 9.28151 16.3115 8.59989 15.6299L1.23305 8.26308C0.551888 7.58192 0.559037 6.47099 1.24844 5.78159C1.9383 5.09173 3.04923 5.08458 3.73039 5.76574L11.0972 13.1326C11.7789 13.8142 11.7717 14.9251 11.0818 15.615Z" fill="black"/>
</g>
</svg>
