<svg width="24" height="24" viewBox="0 0 24 24" fill="none" xmlns="http://www.w3.org/2000/svg">
<g id="event_note">
<mask id="mask0_498_1559" style="mask-type:alpha" maskUnits="userSpaceOnUse" x="0" y="0" width="24" height="24">
<rect id="Bounding box" width="24" height="24" fill="#D9D9D9"/>
</mask>
<g mask="url(#mask0_498_1559)">
<path id="event_note_2" d="M5.61538 21C5.15513 21 4.77083 20.8458 4.4625 20.5375C4.15417 20.2292 4 19.8449 4 19.3846V6.61538C4 6.15513 4.15417 5.77083 4.4625 5.4625C4.77083 5.15417 5.15513 5 5.61538 5H7.3846V2.76923H8.46152V5H15.6154V2.76923H16.6154V5H18.3846C18.8449 5 19.2292 5.15417 19.5375 5.4625C19.8458 5.77083 20 6.15513 20 6.61538V19.3846C20 19.8449 19.8458 20.2292 19.5375 20.5375C19.2292 20.8458 18.8449 21 18.3846 21H5.61538ZM5.61538 20H18.3846C18.5385 20 18.6795 19.9359 18.8077 19.8077C18.9359 19.6795 19 19.5385 19 19.3846V10.6154H5V19.3846C5 19.5385 5.0641 19.6795 5.1923 19.8077C5.32052 19.9359 5.46154 20 5.61538 20ZM5 9.61538H19V6.61538C19 6.46154 18.9359 6.32052 18.8077 6.1923C18.6795 6.0641 18.5385 6 18.3846 6H5.61538C5.46154 6 5.32052 6.0641 5.1923 6.1923C5.0641 6.32052 5 6.46154 5 6.61538V9.61538ZM7.5 13.5V12.5H16.5V13.5H7.5ZM7.5 17.5V16.5H13.5V17.5H7.5Z" fill="#F52A3B"/>
</g>
</g>
</svg>
