<svg width="32" height="32" viewBox="0 0 32 32" fill="none" xmlns="http://www.w3.org/2000/svg">
<g id="yrgo-X">
<path id="Vector" fill-rule="evenodd" clip-rule="evenodd" d="M17.6292 14.6754C16.7263 13.7881 16.7088 12.347 17.5916 11.4559L27.1326 1.82512C28.0147 0.934629 29.4617 0.93266 30.3646 1.81997C31.2682 2.70789 31.2856 4.1489 30.4034 5.0394L20.8625 14.6702C19.9797 15.5613 18.5328 15.5633 17.6292 14.6754Z" fill="#333333"/>
<path id="Vector_2" fill-rule="evenodd" clip-rule="evenodd" d="M1.63508 30.393C0.732143 29.5057 0.714707 28.0647 1.59749 27.1736L11.1384 17.5428C12.0206 16.6523 13.4675 16.6503 14.3705 17.5376C15.274 18.4255 15.2915 19.8666 14.4093 20.757L4.86837 30.3879C3.98559 31.279 2.53863 31.2809 1.63508 30.393Z" fill="#333333"/>
<path id="Vector_3" fill-rule="evenodd" clip-rule="evenodd" d="M14.52 14.4628C13.617 15.3501 12.1701 15.3482 11.2873 14.4571L1.74635 4.82625C0.864174 3.93576 0.88161 2.49474 1.78455 1.60743C2.6881 0.719512 4.13505 0.721483 5.01723 1.61197L14.5582 11.2428C15.4409 12.1339 15.4235 13.5749 14.52 14.4628Z" fill="#333333"/>
<path id="Vector_4" fill-rule="evenodd" clip-rule="evenodd" d="M30.3637 30.3935C29.4608 31.2808 28.0138 31.2789 27.131 30.3878L17.5901 20.7569C16.7079 19.8665 16.7254 18.4254 17.6283 17.5381C18.5318 16.6502 19.9788 16.6522 20.861 17.5427L30.4019 27.1735C31.2847 28.0646 31.2673 29.5056 30.3637 30.3935Z" fill="#333333"/>
</g>
</svg>
