<svg width="65" height="63" viewBox="0 0 65 63" fill="none" xmlns="http://www.w3.org/2000/svg">
<g clip-path="url(#clip0_535_1711)">
<path fill-rule="evenodd" clip-rule="evenodd" d="M32.3322 63C30.1238 63 28.333 61.2321 28.333 59.0486V35.4499C28.333 33.2679 30.1238 31.5 32.3322 31.5C34.5421 31.5 36.3329 33.2679 36.3329 35.4499V59.0486C36.3329 61.2321 34.5421 63 32.3322 63Z" fill="#F52A3B"/>
<path fill-rule="evenodd" clip-rule="evenodd" d="M40.6439 24.798C39.5041 24.798 38.3738 24.3174 37.5876 23.392C36.1811 21.7319 36.4131 19.2734 38.0991 17.8923L58.4812 1.23948C60.1672 -0.140106 62.6742 0.0831091 64.0792 1.74327C65.4858 3.40033 65.2552 5.86035 63.5676 7.23839L43.1872 23.8958C42.4437 24.5019 41.5422 24.798 40.6439 24.798Z" fill="#F52A3B"/>
<mask id="mask0_535_1711" style="mask-type:alpha" maskUnits="userSpaceOnUse" x="0" y="0" width="29" height="26">
<path fill-rule="evenodd" clip-rule="evenodd" d="M0 25.2378V0.307373H28.2649V25.2378H0Z" fill="white"/>
</mask>
<g mask="url(#mask0_535_1711)">
<path fill-rule="evenodd" clip-rule="evenodd" d="M24.2978 25.2378C23.4038 25.2378 22.505 24.9361 21.7652 24.3183L1.42974 7.34143C-0.252943 5.9417 -0.484332 3.42975 0.916594 1.74091C2.31594 0.0536373 4.81872 -0.178599 6.49983 1.22746L26.8353 18.1996C28.5179 19.6041 28.7493 22.1129 27.3484 23.8049C26.5645 24.7481 25.4343 25.2378 24.2978 25.2378Z" fill="#F52A3B"/>
</g>
</g>
<defs>
<clipPath id="clip0_535_1711">
<rect width="65" height="63" fill="white"/>
</clipPath>
</defs>
</svg>
